<?xml version="1.0" encoding="UTF-8" standalone="no"?>
<!DOCTYPE svg PUBLIC "-//W3C//DTD SVG 1.1//EN" "http://www.w3.org/Graphics/SVG/1.1/DTD/svg11.dtd">
<!-- Created with Vectornator (http://vectornator.io/) -->
<svg height="100%" stroke-miterlimit="10" style="fill-rule:nonzero;clip-rule:evenodd;stroke-linecap:round;stroke-linejoin:round;" version="1.1" viewBox="0 0 1332.45 841.995" width="100%" xml:space="preserve" xmlns="http://www.w3.org/2000/svg" xmlns:vectornator="http://vectornator.io" xmlns:xlink="http://www.w3.org/1999/xlink">
<defs>
<g id="Fill">
<path d="M419.242 525.106C423.889 523.421 428.571 518.608 426.637 513.273L396.815 431L398.192 430.501C404.217 428.318 413.042 424.729 410.11 416.64C408.924 413.37 405.424 410.16 401.809 411.47L362.222 425.819C357.403 427.566 354.849 431.802 356.658 436.793C359.715 445.227 371.686 440.109 377.366 438.05L407.624 521.527C409.122 525.658 415.628 526.416 419.242 525.106ZM361.678 438.284C360.473 438.721 359.442 436.953 359.13 436.092C358.195 433.51 358.558 429.679 360.624 428.93C361.312 428.68 361.953 428.837 361.796 429.479C361.168 432.043 361.415 434.874 362.102 436.768C362.351 437.456 362.022 438.16 361.678 438.284ZM414.537 522.332C411.611 523.393 408.692 518.025 407.943 515.959C407.569 514.927 406.119 510.389 407.84 509.765C409.561 509.142 410.51 514.445 410.884 515.478C411.258 516.51 413.022 519.765 414.524 519.611C415.103 519.596 415.337 519.705 415.525 520.222C415.899 521.254 415.57 521.958 414.537 522.332Z"/>
<path d="M502.056 501.188C506.318 500.121 510.713 496.568 509.513 491.773C505.514 475.789 490.459 466.911 478.247 459.588C477.359 459.055 477.048 458.567 476.959 458.211C476.781 457.501 477.181 456.835 477.669 456.524C484.773 451.727 492.318 438.893 487.786 420.778C482.453 399.466 464.558 394.319 448.929 398.23L434.188 401.918C423.709 404.54 423.355 408.403 426.421 420.658L446.775 501.998C447.797 506.083 451.44 513.853 458.721 512.031C465.47 510.342 468.177 504.569 466.355 497.288L460.134 472.424C459.423 469.582 459.999 467.362 461.243 467.051L463.019 466.606C469.057 465.095 486.601 489.957 491.398 495.551C493.796 498.348 496.728 502.521 502.056 501.188ZM462.482 448.623L458.575 449.601C456.444 450.134 455.2 449.691 454.8 448.092L447.734 419.854C446.846 416.302 446.979 415.325 450.042 414.747L454.349 413.858C463.673 411.902 467.892 415.942 470.203 425.177C473.092 436.721 469.586 446.846 462.482 448.623ZM457.166 507.325C457.477 508.568 456.723 509.323 456.19 509.456C453.171 510.212 449.173 501.776 448.684 499.822C448.15 497.691 448.594 496.448 449.127 496.314C450.548 495.959 451.748 501.509 454.857 505.638C455.701 506.748 456.855 506.081 457.166 507.325ZM500.634 497.769C500.767 498.302 500.19 499.012 499.302 499.234C496.15 500.212 492.73 495.595 491.752 492.442C490.775 489.29 490.419 486.36 491.263 485.96C491.795 485.827 493.217 487.736 493.706 489.689C494.461 491.953 496.726 494.972 497.481 495.727C498.236 496.482 500.279 497.103 500.634 497.769Z"/>
<path d="M548.61 494.044C572.527 490.582 582.251 470.862 578.292 443.502L570.791 391.682C569.218 380.811 564.55 376.677 557.121 377.752C549.511 378.854 549.635 389.935 550.343 394.827L556.821 439.58C558.945 454.257 562.788 474.419 546.843 476.726C529.993 479.165 529.554 465.91 527.85 454.133L519.982 399.776C518.094 386.731 514.595 384.277 506.622 385.431C498.65 386.585 498.567 397.511 499.275 402.403L507.378 458.39C510.892 482.67 526.686 497.217 548.61 494.044ZM554.761 389.563C554.945 390.831 555.076 391.737 553.807 391.921C552.72 392.078 552.355 390.836 552.172 389.568C552.038 387.367 552.811 385.036 553.197 383.87C553.738 382.497 554.797 380.864 555.884 380.706C558.058 380.392 558.008 381.324 556.382 384.149C555.014 386.197 554.63 388.657 554.761 389.563ZM505.836 394.054C505.065 397.681 504.036 400.789 502.948 400.947C501.499 401.157 500.972 396.238 503.862 390.641C504.868 388.645 506.42 387.865 507.144 387.761C507.507 387.708 507.74 388.044 507.819 388.588C508.055 390.219 506.427 391.749 505.836 394.054ZM532.027 486.825C532.131 487.55 531.822 487.965 531.097 488.07C526.205 488.778 516.242 477.456 515.484 473.496C515.353 472.59 515.481 472.201 516.025 472.123C516.568 472.044 517.968 472.766 519.396 474.964C521.551 478.352 525.13 481.349 527.23 483.08C529.538 484.966 531.922 486.1 532.027 486.825ZM536.43 487.853C536.561 488.759 535.941 489.588 535.035 489.719C533.974 490.058 533.688 489.359 533.402 488.661C533.323 488.117 533.736 487.133 534.797 486.794C535.522 486.689 536.404 487.671 536.43 487.853Z"/>
<path d="M599.086 487.274L622.859 486.147C638.952 485.384 658.208 474.024 657.28 454.457C655.901 425.38 625.187 430.869 625.109 429.223C625.031 427.577 652.635 429.934 651.23 400.309C650.449 383.851 638.67 371.213 622.76 371.967C609.593 372.592 606.186 385.766 604.723 385.836C603.443 385.896 603.513 383.51 603.331 379.67C603.227 377.476 600.328 374.314 595.756 374.531C587.527 374.921 585.026 380.172 585.521 390.595L589.232 468.864C589.909 483.128 592.32 487.595 599.086 487.274ZM592.069 389.552C592.147 391.197 590.928 392.538 590.197 392.573C588.916 392.634 588.09 390.657 587.96 387.914C587.673 381.879 590.748 377.151 594.04 376.995C595.32 376.934 595.877 377.091 595.912 377.823C595.964 378.92 590.791 381.914 591.008 386.486C591.103 388.498 592.069 389.552 592.069 389.552ZM611.317 420.53C609.488 420.617 607.721 418.134 607.565 414.843L607.114 405.333C606.776 398.202 611.166 390.295 619.944 389.879C626.527 389.567 630.079 394.897 630.426 402.212C630.92 412.635 625.032 419.879 616.803 420.27L611.317 420.53ZM615.304 469.827C610.732 470.044 610.149 469.338 609.872 463.486L609.117 447.577C608.9 443.005 610.233 440.192 612.245 440.097L616.816 439.88C627.24 439.386 635.826 442.644 636.337 453.434C636.849 464.223 629.202 469.168 620.424 469.584L615.304 469.827ZM594.247 474.124C592.784 474.194 592.445 470.911 591.951 460.487C591.613 453.355 592.318 452.772 592.867 452.746C593.598 452.711 594.365 453.408 594.694 460.357C594.798 462.552 595.344 474.072 594.247 474.124ZM594.369 476.685C595.649 476.624 595.666 476.99 595.744 478.635C595.805 479.916 595.308 481.039 594.76 481.065C594.028 481.099 593.096 480.777 593.001 478.766C592.949 477.668 593.454 476.728 594.369 476.685Z"/>
<path d="M696.494 486.574C703.812 486.849 724.222 484.867 724.593 474.988C724.731 471.329 723.501 465.054 720.208 464.93C715.451 464.752 706.646 469.917 698.597 469.615C686.156 469.148 686.749 463.124 687.134 452.879L687.587 440.805C687.731 436.963 688.891 435.358 692.74 435.319L713.806 435.377C718.752 435.38 719.818 431.389 719.935 428.279C720.121 423.34 719.012 418.718 714.255 418.539L692.478 417.905C689.733 417.802 688.521 415.924 688.659 412.265L689.291 395.434C689.38 393.056 691.102 391.105 693.481 391.195L719.304 391.431C723.152 391.393 725.35 386.529 725.508 382.321C725.666 378.113 723.622 374.006 719.231 373.841C715.572 373.704 690.143 372.749 683.557 372.501C677.336 372.268 669.156 375.441 668.675 388.248L665.866 463.073C665.206 480.636 678.017 485.88 696.494 486.574ZM677.176 474.124C678.218 475.628 678.001 476.536 677.262 476.692C673.034 477.083 669.529 467.974 669.152 463.38C668.861 461.354 669.458 460.094 670.19 460.121C670.929 459.966 671.443 460.901 671.747 462.561C672.159 466.241 674.393 470.172 677.176 474.124Z"/>
<path d="M737.603 488.353C740.694 488.712 749.059 489.685 751.605 489.981L766.678 491.917C769.223 492.213 772.133 492.551 775.225 492.911C778.498 493.291 782.909 488.644 783.48 483.734C783.86 480.46 783.479 475.808 780.024 475.407C771.659 474.434 767.777 474.536 759.412 473.563C757.229 473.309 755.292 472.531 755.8 468.167L765.081 388.334C765.631 383.606 761.537 377.601 756.082 376.967C746.443 375.846 744.794 382.105 744.202 387.197L733.082 482.851C732.764 485.578 734.875 488.035 737.603 488.353ZM747.391 388.305C746.845 388.242 746.545 387.654 746.609 387.108C746.477 385.066 749.624 378.612 752.191 378.726C752.918 378.811 753.603 379.259 753.54 379.804C753.189 381.238 748.846 388.474 747.391 388.305ZM739.032 477.645C737.213 477.433 738.181 465.934 738.351 464.479C738.499 463.206 739.64 453.386 741.095 453.556C743.277 453.809 743.112 458.398 742.88 460.398C742.288 465.49 741.396 477.919 739.032 477.645ZM741.51 483.278C741.404 484.187 740.432 484.627 739.704 484.542C738.795 484.436 738.313 483.827 738.419 482.918C738.545 481.827 739.197 480.981 740.47 481.129C741.015 481.193 741.637 482.187 741.51 483.278Z"/>
<path d="M843.568 505.789C845.87 506.394 852.329 508.47 857.687 509.688C863.931 511.14 869.42 512.582 871.162 511.715C872.234 511.239 873.137 509.962 873.463 508.723C873.742 507.66 873.397 506.813 873.136 506.365C872.567 505.648 870.712 504.782 868.597 503.469C867.627 502.836 868.008 500.664 868.288 499.602L890.573 414.788C891.085 412.84 892.25 412.01 893.405 411.935C895.716 411.785 899.815 410.591 900.699 407.227C901.351 404.748 898.527 403.249 884.539 399.573C868.957 395.479 864.205 395.555 863.367 398.742C862.716 401.221 863.35 403.849 868.308 405.152C870.079 405.617 872.139 407.862 871.674 409.632L849.342 494.624C848.923 496.217 847.619 497.578 846.025 497.16C842.13 496.136 839.046 497.787 838.441 500.088C837.557 503.453 841.09 505.138 843.568 505.789ZM859.13 481.863C856.851 490.54 855.547 491.901 854.502 490.112C853.458 488.323 858.223 472.35 859.817 472.768C860.879 473.048 860.433 476.906 859.13 481.863ZM855.781 494.612C855.548 495.497 854.7 495.843 853.815 495.61C852.752 495.331 852.361 494.66 852.593 493.775C852.919 492.535 853.804 492.768 854.69 493C854.69 493 856.106 493.373 855.781 494.612Z"/>
<path d="M887.617 517.838C894.13 520.283 899.511 514.286 906.204 496.462L916.437 469.211C919.398 461.327 921.092 457.856 921.949 458.178C922.635 458.435 922.87 459.893 922.933 462.85C923.759 484.085 930.727 522.293 931.561 526.322C932.394 530.35 935.263 535.73 939.719 537.403C944.861 539.334 949.428 531.858 953.676 520.546L982.574 443.592C983.926 439.993 986.221 434.402 977.652 431.183C968.911 427.901 965.694 433.342 962.927 440.712L947.094 482.874C946.322 484.931 945.421 485.766 944.736 485.508C943.707 485.122 943.151 482.958 942.917 479.936C941.19 461.101 940.189 447.623 938.119 428.658C937.052 418.48 932.405 414.192 926.406 411.94C922.464 410.459 917.085 411.764 914.768 417.934L885.162 496.773C882.202 504.657 879.733 514.877 887.617 517.838ZM968.755 441.336C967.168 443.478 966.289 443.735 966.118 443.67C963.847 442.427 971.288 430.945 973.73 432.253C974.351 432.682 975.4 434.054 973.621 435.146C971.842 436.238 970.148 439.708 968.755 441.336ZM917.83 422.799C916.393 425.584 915.471 426.998 914.614 426.676C913.243 426.161 916.889 418.535 919.183 416.072C921.477 413.609 922.634 413.652 923.32 413.91C924.005 414.167 923.619 415.195 922.419 416.309C921.154 417.594 919.01 420.7 917.83 422.799ZM914.355 432.054C914.033 432.911 913.261 433.404 912.576 433.146C911.89 432.889 911.976 432.139 912.298 431.282C912.362 431.111 913.091 430.211 913.948 430.533C914.634 430.79 914.483 431.712 914.355 432.054ZM888.583 513.703C888.454 514.045 887.747 514.366 887.404 514.238C885.69 513.594 884.857 508.001 886.531 503.545C887.174 501.831 887.774 501.274 888.289 501.467C888.803 501.66 888.952 502.303 888.438 503.674C886.507 508.816 888.905 512.846 888.583 513.703Z"/>
</g>
<filter color-interpolation-filters="sRGB" filterUnits="userSpaceOnUse" height="204.688" id="Filter" width="648.696" x="345.641" y="361.501">
<feDropShadow dx="-6.62938e-05" dy="18.0479" flood-color="#de1957" flood-opacity="1" in="SourceGraphic" result="Shadow" stdDeviation="0"/>
</filter>
<path d="M331.87 743.307C338.297 740.604 344.551 733.491 341.447 726.111L293.59 612.322L295.495 611.521C303.827 608.017 316.005 602.335 311.3 591.147C309.397 586.624 304.238 582.35 299.239 584.452L244.487 607.48C237.821 610.283 234.524 616.432 237.428 623.336C242.334 635 258.835 626.94 266.691 623.636L315.248 739.091C317.651 744.804 326.871 745.409 331.87 743.307ZM244.605 625.08C242.939 625.781 241.361 623.362 240.861 622.172C239.359 618.601 239.599 613.177 242.456 611.976C243.408 611.575 244.322 611.751 244.147 612.666C243.444 616.323 243.993 620.294 245.094 622.913C245.495 623.865 245.081 624.88 244.605 625.08ZM325.044 739.734C320.997 741.436 316.503 734.081 315.302 731.224C314.701 729.796 312.336 723.506 314.716 722.505C317.097 721.504 318.81 728.908 319.411 730.337C320.011 731.765 322.728 736.226 324.833 735.901C325.647 735.838 325.985 735.976 326.285 736.69C326.886 738.119 326.472 739.133 325.044 739.734ZM382.891 724.037C386.109 723.082 395.417 720.86 402.771 718.409C411.363 715.591 419.038 713.315 420.505 710.994C421.449 709.637 421.604 707.436 421.09 705.702C420.65 704.217 419.613 703.447 418.971 703.099C417.76 702.65 414.89 702.962 411.378 702.927C409.745 702.872 408.616 699.975 408.176 698.489L372.997 579.895C372.19 577.172 372.987 575.319 374.325 574.383C377.003 572.512 381.073 568.072 379.678 563.368C378.65 559.901 374.147 560.159 354.588 565.961C332.8 572.424 327.124 575.993 328.446 580.45C329.475 583.916 332.162 586.621 339.095 584.564C341.571 583.83 345.698 585.03 346.432 587.506L381.684 706.347C382.345 708.576 381.768 711.171 379.54 711.832C374.093 713.448 371.581 717.694 372.536 720.913C373.932 725.617 379.425 725.065 382.891 724.037ZM384.153 683.796C387.752 695.927 387.175 698.523 384.607 697.13C382.038 695.737 376.098 672.986 378.326 672.325C379.812 671.884 382.097 676.863 384.153 683.796ZM389.441 701.622C389.808 702.86 389.038 703.896 387.8 704.264C386.315 704.704 385.352 704.182 384.984 702.944C384.47 701.211 385.708 700.844 386.946 700.476C386.946 700.476 388.927 699.889 389.441 701.622ZM476.392 701.873C486.528 699.883 513.91 690.559 511.223 676.874C510.228 671.806 506.509 663.588 501.948 664.484C495.359 665.778 484.942 675.719 473.792 677.908C456.56 681.291 455.424 672.829 452.638 658.638L449.354 641.913C448.309 636.592 449.382 634.012 454.654 632.714L483.597 625.978C490.389 624.381 490.562 618.558 489.716 614.25C488.372 607.408 485.354 601.421 478.766 602.714L448.66 608.889C444.859 609.635 442.587 607.449 441.592 602.381L437.014 579.067C436.367 575.773 438.101 572.538 441.395 571.891L476.927 563.862C482.199 562.563 483.643 555.174 482.498 549.345C481.354 543.517 477.218 538.539 471.137 539.733C466.068 540.728 430.844 547.645 421.722 549.436C413.106 551.128 402.901 558.132 406.384 575.87L426.735 679.515C431.511 703.843 450.797 706.899 476.392 701.873ZM445.839 691.029C447.757 692.757 447.753 694.074 446.789 694.527C441.11 696.431 433.35 685.059 431.346 678.873C430.292 676.185 430.704 674.262 431.717 674.063C432.681 673.61 433.69 674.728 434.645 676.909C436.4 681.828 440.739 686.503 445.839 691.029ZM598.537 684.972C604.706 684.379 611.583 680.345 610.916 673.405C608.693 650.269 589.558 634.725 574.061 621.945C572.934 621.015 572.603 620.269 572.554 619.755C572.455 618.726 573.152 617.881 573.898 617.55C584.814 612.35 598.034 596.033 595.515 569.812C592.552 538.964 568.67 528.027 546.049 530.2L524.712 532.25C509.545 533.707 508.24 539.022 509.944 556.759L521.255 674.495C521.823 680.408 525.273 692.01 535.813 690.998C545.581 690.059 550.57 682.575 549.557 672.035L546.1 636.046C545.704 631.933 546.975 628.957 548.775 628.784L551.345 628.538C560.085 627.698 579.337 666.061 584.854 674.871C587.612 679.276 590.825 685.713 598.537 684.972ZM554.373 603.341L548.717 603.884C545.632 604.18 543.991 603.3 543.769 600.987L539.842 560.113C539.348 554.972 539.739 553.637 544.134 553.474L550.328 553.139C563.745 552.369 568.782 558.889 570.066 572.257C571.671 588.966 564.655 602.353 554.373 603.341ZM534.632 684.106C534.805 685.906 533.593 686.801 532.822 686.875C528.452 687.295 524.647 674.688 524.375 671.86C524.078 668.776 524.959 667.135 525.73 667.06C527.786 666.863 528.295 674.857 531.765 681.269C532.709 682.994 534.459 682.307 534.632 684.106ZM597.272 679.904C597.346 680.676 596.391 681.546 595.106 681.669C590.504 682.371 586.703 675.212 586.001 670.61C585.299 666.007 585.418 661.845 586.679 661.464C587.45 661.39 589.032 664.351 589.304 667.179C589.882 670.496 592.407 675.183 593.302 676.394C594.197 677.605 596.916 678.901 597.272 679.904ZM656.719 685.769C681.768 685.529 699.424 668.315 699.192 644.041C699.066 630.871 691.722 619.061 669.035 596.293C650.52 577.617 645.276 569.403 645.175 558.815C645.093 550.293 648.414 546.387 655.902 546.316C663.391 546.244 667.818 550.076 668.143 557.046C668.458 562.983 674.432 566.541 678.564 566.502C687.344 566.418 694.22 556.28 694.122 545.95C694.013 534.588 674.524 522.119 656.706 522.29C631.398 522.532 615.784 537.144 616.009 560.643C616.142 574.588 625.84 589.475 650.868 614.028C660.254 623.236 670.153 632.18 670.294 646.9C670.4 658.004 664.773 663.74 653.927 663.843C643.339 663.945 638.897 658.564 638.776 645.91C638.69 636.872 636.331 633.279 630.389 633.077C621.088 632.65 614.19 640.463 614.291 651.051C614.464 669.128 635.286 685.974 656.719 685.769ZM630.824 543.457C628.79 546.833 628.306 550.195 626.495 549.954C625.462 549.964 624.941 549.453 624.931 548.42C625.391 542.475 635.602 529.981 639.997 530.456C641.03 530.446 640.024 533.296 637.459 535.129C634.896 537.219 632.093 541.12 630.824 543.457ZM626.803 555.117C626.555 556.152 625.787 556.934 625.013 556.942C623.719 556.696 623.198 556.184 623.19 555.41C623.183 554.635 624.203 553.334 625.236 553.324C626.011 553.316 626.793 554.084 626.803 555.117ZM623.841 650.443C622.077 655.109 623.925 659.223 622.117 659.241C621.342 659.248 620.555 657.964 620.026 656.678C617.365 648.439 621.659 638.326 627.345 638.788C628.12 638.781 628.125 639.297 628.132 640.072C627.901 642.915 625.604 645.778 623.841 650.443ZM741.452 686.017C748.41 686.472 757.183 682.905 757.706 674.916L765.762 551.736L767.824 551.871C776.843 552.461 790.277 552.822 791.069 540.71C791.389 535.814 788.685 529.685 783.273 529.331L724.002 525.454C716.787 524.982 711.089 529.009 710.6 536.483C709.774 549.11 728.138 549.276 736.642 549.832L728.468 674.816C728.064 681 736.04 685.663 741.452 686.017ZM716.24 541.251C714.437 541.133 714.107 538.265 714.191 536.976C714.444 533.111 717.083 528.366 720.175 528.568C721.206 528.636 721.946 529.202 721.38 529.941C719.116 532.899 717.832 536.697 717.647 539.531C717.579 540.562 716.756 541.285 716.24 541.251ZM736.943 679.769C732.562 679.483 731.83 670.895 732.032 667.802C732.133 666.256 732.829 659.573 735.406 659.741C737.983 659.91 736.206 667.299 736.105 668.845C736.004 670.391 736.44 675.596 738.468 676.246C739.224 676.554 739.465 676.829 739.414 677.602C739.313 679.148 738.489 679.871 736.943 679.769ZM856.997 538.133C840.936 535.534 832.849 540.242 820.269 564.628C803.357 597.993 780.625 657.623 777.778 675.214C776.416 683.626 778.774 688.455 784.892 689.446C792.285 690.642 799.945 685.342 804.104 675.812L814.858 651.392C816.456 647.988 819.762 646.953 826.391 648.026C830.215 648.645 838.076 650.179 847.764 651.747C851.078 652.284 853.758 653.502 853.96 660.337C854.495 674.812 856.705 693.483 859.104 698.057C860.262 700.599 863.115 702.368 866.939 702.987C875.097 704.308 884.755 699.592 885.869 692.709C887.85 680.472 880.422 563.115 876.498 550.185C874.733 544.928 867.704 539.866 856.997 538.133ZM838.97 550.912C834.445 554.627 832.986 560.408 831.498 559.905C828.776 558.942 832.432 550.9 837.164 545.911C840.291 542.754 843.384 541.424 846.105 542.387C848.359 543.014 843.241 547.156 838.97 550.912ZM835.457 598.48C837.343 593.291 847.146 565.054 850.715 565.632C854.539 566.251 852.612 599.164 852.732 606.508C853.053 620.687 854.019 627.645 851.47 627.233L829.036 623.601C825.977 623.106 828.793 617.022 835.457 598.48ZM786.555 672.71C785.55 675.687 784.627 678.153 785.062 680.317C785.628 683.286 784.912 684.478 783.423 683.976C780.743 682.757 780.961 674.944 783.308 668.522C784.231 666.055 785.629 665.497 786.139 665.579C787.373 666.041 787.98 668.755 786.555 672.71ZM864.35 685.04C865.771 689.194 867.172 698.316 865.174 697.731C861.646 696.898 859.589 683.747 860.339 680.729C860.841 679.24 861.261 678.262 862.026 678.386C862.791 678.509 862.798 680.08 864.35 685.04ZM913.406 713.603L927.027 717.63C958.232 726.854 994.743 702.638 1009.09 654.097C1022.56 608.528 1003.97 573.948 975.735 565.603L964.591 562.309C949.236 557.77 933.987 561.072 928.643 579.151L897.312 685.148C892.26 702.236 901.519 710.09 913.406 713.603ZM929.597 692.537C927.368 691.878 926.789 689.283 928.765 682.596L954.241 596.412C956.657 588.239 958.407 586.872 964.103 588.556L967.818 589.654C983.421 594.266 989.807 613.658 980.583 644.862C970.261 679.782 950.153 698.613 932.817 693.489L929.597 692.537ZM904.623 688.656C902.146 687.924 903.785 683.291 908.104 668.68C911.032 658.773 913.369 655.424 914.359 655.717C915.35 656.01 914.601 660.367 911.819 669.778C910.867 672.997 907.347 689.461 904.623 688.656ZM903.35 692.05C905.084 692.562 905.185 693.131 904.526 695.359C903.941 697.341 902.466 699.598 901.475 699.305C900.484 699.012 900.006 696.986 900.812 694.261C901.251 692.775 902.112 691.684 903.35 692.05ZM1017.04 750.542C1023.37 753.453 1032.84 753.258 1036.18 745.983L1087.73 633.818L1089.61 634.681C1097.82 638.455 1110.24 643.594 1115.31 632.565C1117.36 628.107 1117.02 621.415 1112.09 619.151L1058.12 594.347C1051.55 591.328 1044.79 593.052 1041.66 599.857C1036.38 611.355 1053.47 618.073 1061.21 621.632L1008.91 735.44C1006.32 741.072 1012.11 748.277 1017.04 750.542ZM1045.23 606.327C1043.58 605.572 1044.3 602.775 1044.84 601.602C1046.46 598.082 1050.62 594.594 1053.44 595.888C1054.37 596.319 1054.86 597.112 1054.07 597.601C1050.9 599.554 1048.34 602.642 1047.16 605.223C1046.72 606.162 1045.7 606.542 1045.23 606.327ZM1015.06 743.096C1011.07 741.262 1013.45 732.98 1014.75 730.164C1015.39 728.756 1018.43 722.763 1020.78 723.841C1023.13 724.919 1018.83 731.185 1018.18 732.593C1017.53 734.001 1016.08 739.018 1017.74 740.35C1018.34 740.908 1018.46 741.25 1018.14 741.954C1017.49 743.362 1016.47 743.743 1015.06 743.096Z" id="Fill_2"/>
<filter color-interpolation-filters="sRGB" filterUnits="userSpaceOnUse" height="272.179" id="Filter_2" width="900.991" x="225.934" y="511.854">
<feDropShadow dx="-7.82443e-05" dy="21.3014" flood-color="#de1957" flood-opacity="1" in="SourceGraphic" result="Shadow" stdDeviation="0"/>
</filter>
<filter color-interpolation-filters="sRGB" filterUnits="userSpaceOnUse" height="122.714" id="Filter_3" width="428.338" x="449.248" y="253.799">
<feDropShadow dx="-3.10713e-05" dy="8.4589" flood-color="#fd6666" flood-opacity="1" in="SourceGraphic" result="Shadow" stdDeviation="0"/>
</filter>
<path d="M483.713 350.919C488.542 347.77 490.365 341.625 487.648 337.481C486.399 335.577 484.656 334.875 483.308 335.754C481.792 336.743 481.155 339.317 482.11 340.772C482.991 342.116 482.36 343.966 480.732 345.028C477.306 347.262 472.719 344.178 468.092 337.122C462.951 329.283 461.655 322.294 465.361 319.877C466.765 318.962 468.009 319.27 469.057 320.745C470.435 322.724 472.718 323.394 474.459 322.259C475.975 321.27 476.027 319.638 474.668 317.566C471.768 313.142 465.748 312.031 461.087 315.07C454.123 319.611 454.396 330.784 461.336 341.368C467.909 351.391 476.862 355.386 483.713 350.919ZM457.938 325.917C457.882 325.953 457.713 326.063 457.53 325.783C456.596 323.993 458.065 317.92 460.739 316.496C461.169 316.296 461.597 316.337 461.724 316.653C461.871 316.877 461.625 317.357 461.195 317.558C458.782 318.891 458.48 325.643 457.938 325.917ZM457.78 326.899C458.435 326.552 458.769 328.652 458.227 328.925C458.115 328.999 457.912 328.811 457.728 328.531C457.417 327.935 457.443 327.118 457.78 326.899Z" id="Fill_3"/>
<path d="M501.085 292.771C497.212 294.46 496.109 296.62 496.795 303.696C497.8 313.335 501.232 329.51 503.086 333.74C503.974 335.763 505.168 336.483 506.644 335.84C508.426 335.063 509.353 332.833 508.919 330.174L507.829 323.347C507.699 322.382 508.275 321.692 509.874 320.995C510.796 320.593 512.728 319.824 515.065 318.805C515.864 318.457 516.621 318.346 517.627 319.805C519.782 322.882 522.893 326.637 524.061 327.296C524.672 327.687 525.544 327.672 526.466 327.27C528.433 326.412 529.878 324.029 529.152 322.374C527.862 319.432 509.717 294.922 507.04 292.657C505.914 291.76 503.667 291.645 501.085 292.771ZM498.948 298.084C498.483 299.528 498.978 300.992 498.582 301.091C497.852 301.264 497.518 298.999 497.849 297.249C498.087 296.122 498.576 295.399 499.306 295.226C499.886 295.046 499.351 296.667 498.948 298.084ZM504.878 308.935C504.559 307.54 502.724 300.016 503.585 299.64C504.507 299.238 508.72 306.675 509.78 308.257C511.846 311.3 513.037 312.679 512.422 312.947L507.013 315.306C506.275 315.628 506.033 313.907 504.878 308.935ZM504.65 331.963C504.85 332.752 504.996 333.419 505.395 333.829C505.937 334.396 505.948 334.756 505.553 334.855C504.796 334.966 503.743 333.234 503.352 331.507C503.206 330.84 503.433 330.522 503.556 330.468C503.89 330.396 504.405 330.901 504.65 331.963ZM523.374 323.725C524.269 324.431 525.859 326.22 525.34 326.373C524.453 326.687 522.152 324.112 521.891 323.35C521.791 322.955 521.745 322.683 521.929 322.603C522.114 322.522 522.337 322.863 523.374 323.725Z" id="Fill_4"/>
<path d="M563.147 314.403C564.696 313.965 566.266 312.618 565.773 310.88C564.128 305.086 558.513 302.012 553.957 299.474C553.626 299.29 553.506 299.115 553.47 298.986C553.397 298.728 553.536 298.481 553.711 298.362C556.259 296.53 558.879 291.757 557.015 285.191C554.821 277.466 548.208 275.787 542.527 277.391L537.168 278.903C533.359 279.979 533.273 281.394 534.534 285.836L542.905 315.319C543.326 316.8 544.748 319.597 547.395 318.85C549.848 318.157 550.775 316.018 550.025 313.379L547.466 304.366C547.174 303.336 547.36 302.519 547.812 302.391L548.458 302.209C550.653 301.589 557.359 310.474 559.179 312.463C560.089 313.458 561.21 314.949 563.147 314.403ZM548.059 295.646L546.638 296.047C545.864 296.266 545.403 296.118 545.239 295.538L542.332 285.303C541.967 284.015 542.005 283.657 543.12 283.412L544.688 283.038C548.082 282.219 549.673 283.648 550.623 286.995C551.811 291.18 550.641 294.917 548.059 295.646ZM546.772 317.148C546.9 317.599 546.632 317.883 546.438 317.938C545.341 318.248 543.781 315.211 543.58 314.503C543.361 313.731 543.509 313.272 543.703 313.217C544.22 313.071 544.722 315.085 545.907 316.558C546.229 316.954 546.644 316.698 546.772 317.148ZM562.588 313.17C562.643 313.363 562.439 313.629 562.116 313.72C560.973 314.113 559.668 312.464 559.274 311.324C558.881 310.183 558.717 309.117 559.022 308.961C559.216 308.907 559.758 309.588 559.959 310.296C560.261 311.115 561.125 312.192 561.41 312.459C561.695 312.727 562.45 312.931 562.588 313.17Z" id="Fill_5"/>
<path d="M582.78 309.396C583.905 309.206 586.948 308.692 587.874 308.536L593.376 307.675C594.303 307.519 595.361 307.34 596.486 307.15C597.677 306.949 598.752 304.867 598.45 303.086C598.248 301.899 597.638 300.306 596.381 300.518C593.338 301.031 591.982 301.464 588.939 301.978C588.145 302.112 587.383 302.037 587.115 300.453L582.199 271.494C581.908 269.779 579.852 268.09 577.867 268.425C574.361 269.017 574.422 271.381 574.735 273.229L580.626 307.927C580.794 308.917 581.788 309.563 582.78 309.396ZM575.971 273.291C575.773 273.325 575.607 273.149 575.573 272.951C575.318 272.248 575.763 269.662 576.678 269.44C576.943 269.395 577.23 269.482 577.263 269.68C577.287 270.219 576.5 273.202 575.971 273.291ZM582.186 305.492C581.524 305.604 580.686 301.471 580.597 300.943C580.518 300.481 579.914 296.919 580.443 296.829C581.237 296.695 581.649 298.322 581.772 299.048C582.086 300.895 583.046 305.347 582.186 305.492ZM583.635 307.216C583.691 307.546 583.394 307.799 583.129 307.844C582.799 307.9 582.567 307.735 582.511 307.406C582.443 307.01 582.586 306.646 583.049 306.568C583.247 306.535 583.568 306.82 583.635 307.216Z" id="Fill_6"/>
<path d="M659.917 302.484C663.538 302.606 666.959 300.712 669.872 297.931C672.051 301.017 673.919 303.355 674.724 303.382C676.199 303.432 678.43 302.971 678.491 301.165C678.538 299.761 676.697 296.62 674.141 292.786C675.27 291.15 677.48 287.341 677.55 285.268C677.609 283.53 676.565 282.625 675.425 282.586C674.285 282.548 673.051 283.31 672.532 284.765C672.089 285.956 671.581 287.077 671.009 288.129C666.082 280.934 660.574 273.051 660.68 269.909C660.768 267.301 662.08 266.207 663.757 266.263C665.433 266.319 666.038 268.281 668.117 268.35C670.196 268.42 671.169 265.44 670.731 264.488C669.918 262.72 666.966 260.68 663.211 260.554C657.645 260.368 653.707 263.65 653.536 268.732C653.43 271.875 655.41 274.887 655.385 275.622C655.356 276.491 647.252 277.894 646.887 288.726C646.605 297.085 651.267 302.195 659.917 302.484ZM655.825 268.541C655.624 268.534 655.57 268.131 655.575 267.997C655.62 266.66 657.908 262.519 659.786 262.582C659.853 262.584 659.85 262.651 659.848 262.718C659.841 262.918 658.873 263.756 658.802 263.888C657.968 264.73 657.395 265.782 656.957 266.838C656.809 267.235 656.429 268.561 655.825 268.541ZM656.435 270.369C656.43 270.503 656.283 270.899 655.947 270.888C655.679 270.879 655.487 270.605 655.496 270.337C655.503 270.137 655.715 269.809 656.051 269.82C656.453 269.834 656.442 270.168 656.435 270.369ZM666.738 293.341C664.596 295.144 662.349 296.072 660.404 296.007C655.844 295.854 653.02 292.011 653.148 288.2C653.257 284.99 655.468 281.114 657.883 281.195C658.754 281.224 662.774 287.451 666.738 293.341ZM649.687 293.305C649.481 293.432 649.222 293.156 649.159 293.02C648.006 291.374 647.889 286.885 649.47 285.8C649.608 285.671 650.071 285.887 649.626 287.144C649.031 288.865 649.323 290.147 649.62 291.295C649.741 291.7 650.167 292.987 649.687 293.305Z" id="Fill_7"/>
<path d="M738.072 312.105C743.664 313.526 749.438 310.713 750.664 305.915C751.228 303.711 750.569 301.956 749.008 301.559C747.253 301.113 744.92 302.384 744.489 304.069C744.091 305.625 742.297 306.412 740.412 305.933C736.446 304.925 735.625 299.469 737.714 291.3C740.034 282.223 744.324 276.547 748.615 277.638C750.241 278.051 750.854 279.174 750.471 280.941C749.94 283.291 750.988 285.422 753.003 285.934C754.759 286.381 756 285.315 756.614 282.917C757.923 277.795 754.676 272.62 749.28 271.248C741.218 269.198 733.142 276.95 730.01 289.203C727.043 300.808 730.14 310.088 738.072 312.105ZM739.134 276.264C739.069 276.247 738.874 276.198 738.957 275.874C739.65 273.978 745.132 270.953 747.991 271.956C748.43 272.136 748.688 272.478 748.54 272.786C748.474 273.045 747.953 273.189 747.514 273.008C744.898 272.136 739.703 276.477 739.134 276.264ZM738.302 276.812C739 277.058 737.675 278.724 737.106 278.51C736.976 278.477 736.977 278.201 737.06 277.877C737.291 277.245 737.912 276.712 738.302 276.812Z" id="Fill_8"/>
<path d="M792.057 284.565C788.141 282.979 785.819 283.701 781.219 289.131C775 296.579 765.784 310.323 764.043 314.6C763.21 316.646 763.527 318.002 765.019 318.606C766.822 319.336 769.069 318.44 770.675 316.274L774.815 310.729C775.417 309.962 776.315 309.892 777.931 310.546C778.864 310.924 780.766 311.766 783.128 312.722C783.936 313.049 784.545 313.512 784.199 315.25C783.495 318.936 782.972 323.779 783.314 325.073C783.46 325.782 784.08 326.394 785.012 326.771C787.002 327.577 789.721 326.944 790.402 325.271C791.614 322.295 796.541 292.229 796.297 288.736C796.155 287.307 794.668 285.622 792.057 284.565ZM786.751 286.749C785.389 287.426 784.684 288.801 784.336 288.588C783.703 288.187 785.095 286.368 786.583 285.382C787.558 284.765 788.419 284.608 789.052 285.009C789.586 285.298 788.05 286.048 786.751 286.749ZM783.101 298.558C783.88 297.357 788.001 290.793 788.871 291.146C789.804 291.523 787.406 299.723 787.011 301.585C786.269 305.184 786.111 306.997 785.489 306.746L780.018 304.531C779.272 304.229 780.338 302.856 783.101 298.558ZM766.411 314.476C765.984 315.169 765.607 315.739 765.591 316.31C765.562 317.093 765.312 317.353 764.964 317.14C764.356 316.677 764.864 314.716 765.832 313.23C766.208 312.661 766.595 312.601 766.719 312.651C767.005 312.839 767.001 313.559 766.411 314.476ZM785.398 322.089C785.516 323.22 785.342 325.605 784.87 325.342C784.025 324.927 784.267 321.487 784.632 320.768C784.845 320.422 785.009 320.199 785.195 320.274C785.382 320.35 785.292 320.747 785.398 322.089Z" id="Fill_9"/>
<path d="M819.724 344.257C821.102 345.089 823.16 345.315 824.099 343.77C827.227 338.619 825.652 332.428 824.407 327.374C824.317 327.007 824.363 326.801 824.433 326.686C824.572 326.457 824.848 326.389 825.055 326.436C828.137 327.045 833.424 325.701 836.969 319.864C841.139 312.996 837.861 307.027 832.811 303.978L828.047 301.101C824.661 299.057 823.564 299.959 821.166 303.908L805.248 330.12C804.449 331.436 803.367 334.381 805.72 335.801C807.901 337.118 810.102 336.336 811.527 333.989L816.392 325.977C816.948 325.061 817.675 324.639 818.077 324.882L818.651 325.228C820.602 326.407 818.659 337.357 818.441 340.041C818.332 341.383 818.002 343.218 819.724 344.257ZM823.193 320.462L821.93 319.7C821.241 319.284 821.036 318.847 821.349 318.332L826.875 309.232C827.57 308.087 827.858 307.871 828.799 308.517L830.142 309.406C833.057 311.322 833.094 313.457 831.287 316.433C829.028 320.153 825.488 321.848 823.193 320.462ZM806.543 334.187C806.3 334.588 805.909 334.586 805.737 334.482C804.761 333.893 805.925 330.685 806.307 330.055C806.724 329.368 807.162 329.164 807.334 329.268C807.794 329.545 806.659 331.284 806.387 333.154C806.315 333.658 806.787 333.786 806.543 334.187ZM820.247 343.009C820.143 343.18 819.809 343.213 819.522 343.04C818.454 342.474 818.773 340.398 819.341 339.333C819.91 338.268 820.58 337.422 820.902 337.538C821.074 337.642 820.944 338.502 820.562 339.132C820.168 339.91 819.966 341.275 819.965 341.665C819.963 342.055 820.329 342.745 820.247 343.009Z" id="Fill_10"/>
<path d="M836.116 354.983C836.78 355.547 838.583 357.254 840.159 358.504C841.991 359.971 843.574 361.316 844.287 361.306C844.717 361.319 845.218 361.042 845.523 360.685C845.784 360.38 845.804 360.046 845.789 359.857C845.715 359.531 845.24 358.952 844.75 358.184C844.531 357.822 845.002 357.167 845.263 356.862L866.099 332.461C866.578 331.901 867.094 331.812 867.488 331.971C868.275 332.287 869.819 332.544 870.645 331.576C871.254 330.863 870.56 329.922 866.524 326.495C862.028 322.678 860.447 321.95 859.664 322.867C859.055 323.58 858.847 324.546 860.277 325.76C860.788 326.194 861.112 327.26 860.677 327.769L839.797 352.221C839.405 352.679 838.758 352.921 838.298 352.53C837.174 351.576 835.894 351.631 835.328 352.293C834.502 353.261 835.401 354.376 836.116 354.983ZM845.057 349.569C842.925 352.065 842.279 352.307 842.218 351.552C842.157 350.798 846.269 346.292 846.729 346.683C847.035 346.943 846.275 348.143 845.057 349.569ZM841.925 353.237C841.707 353.492 841.373 353.471 841.117 353.254C840.811 352.994 840.788 352.711 841.005 352.456C841.31 352.1 841.565 352.316 841.821 352.533C841.821 352.533 842.229 352.88 841.925 353.237Z" id="Fill_11"/>
</defs>
<g id="Layer-1" vectornator:layerName="Layer 1">
<g filter="url(#Filter)" vectornator:layerName="Curve 2" vectornator:shadowAngle="1.5708" vectornator:shadowColor="#de1957" vectornator:shadowOffset="18.0479" vectornator:shadowOpacity="1" vectornator:shadowRadius="0">
<use fill="#ffa254" stroke="none" xlink:href="#Fill"/>
<mask height="1484.03" id="StrokeMask" maskUnits="userSpaceOnUse" width="1946.09" x="-303.055" y="-287.195">
<rect fill="#ffffff" height="1484.03" stroke="none" width="1946.09" x="-303.055" y="-287.195"/>
<use fill="#000000" fill-rule="evenodd" stroke="none" xlink:href="#Fill"/>
</mask>
<use fill="none" mask="url(#StrokeMask)" stroke="#de1957" stroke-linecap="round" stroke-linejoin="round" stroke-width="20.8689" xlink:href="#Fill"/>
</g>
<g filter="url(#Filter_2)" vectornator:layerName="Curve 40" vectornator:shadowAngle="1.5708" vectornator:shadowColor="#de1957" vectornator:shadowOffset="21.3014" vectornator:shadowOpacity="1" vectornator:shadowRadius="0">
<use fill="#ffa254" fill-rule="nonzero" stroke="none" xlink:href="#Fill_2"/>
<mask height="250.878" id="StrokeMask_2" maskUnits="userSpaceOnUse" width="900.991" x="225.934" y="511.854">
<rect fill="#ffffff" height="250.878" stroke="none" width="900.991" x="225.934" y="511.854"/>
<use fill="#000000" fill-rule="evenodd" stroke="none" xlink:href="#Fill_2"/>
</mask>
<use fill="none" mask="url(#StrokeMask_2)" stroke="#de1957" stroke-linecap="round" stroke-linejoin="round" stroke-width="20.8689" xlink:href="#Fill_2"/>
</g>
<g filter="url(#Filter_3)" vectornator:layerName="Group 1" vectornator:shadowAngle="1.5708" vectornator:shadowColor="#fd6666" vectornator:shadowOffset="8.4589" vectornator:shadowOpacity="1" vectornator:shadowRadius="0">
<g opacity="1">
<use fill="#ffe587" fill-rule="nonzero" stroke="none" xlink:href="#Fill_3"/>
<mask height="52.8729" id="StrokeMask_3" maskUnits="userSpaceOnUse" width="46.4119" x="449.248" y="306.61">
<rect fill="#ffffff" height="52.8729" stroke="none" width="46.4119" x="449.248" y="306.61"/>
<use fill="#000000" fill-rule="evenodd" stroke="none" xlink:href="#Fill_3"/>
</mask>
<use fill="none" mask="url(#StrokeMask_3)" stroke="#ffa254" stroke-linecap="round" stroke-linejoin="round" stroke-width="13.4954" xlink:href="#Fill_3"/>
</g>
<g opacity="1">
<use fill="#ffe587" fill-rule="nonzero" stroke="none" xlink:href="#Fill_4"/>
<mask height="57.6083" id="StrokeMask_4" maskUnits="userSpaceOnUse" width="46.2342" x="489.856" y="285.208">
<rect fill="#ffffff" height="57.6083" stroke="none" width="46.2342" x="489.856" y="285.208"/>
<use fill="#000000" fill-rule="evenodd" stroke="none" xlink:href="#Fill_4"/>
</mask>
<use fill="none" mask="url(#StrokeMask_4)" stroke="#ffa254" stroke-linecap="round" stroke-linejoin="round" stroke-width="13.4954" xlink:href="#Fill_4"/>
</g>
<g opacity="1">
<use fill="#ffe587" fill-rule="nonzero" stroke="none" xlink:href="#Fill_5"/>
<mask height="55.632" id="StrokeMask_5" maskUnits="userSpaceOnUse" width="45.5543" x="527.059" y="270.09">
<rect fill="#ffffff" height="55.632" stroke="none" width="45.5543" x="527.059" y="270.09"/>
<use fill="#000000" fill-rule="evenodd" stroke="none" xlink:href="#Fill_5"/>
</mask>
<use fill="none" mask="url(#StrokeMask_5)" stroke="#ffa254" stroke-linecap="round" stroke-linejoin="round" stroke-width="13.4954" xlink:href="#Fill_5"/>
</g>
<g opacity="1">
<use fill="#ffe587" fill-rule="nonzero" stroke="none" xlink:href="#Fill_6"/>
<mask height="54.5353" id="StrokeMask_6" maskUnits="userSpaceOnUse" width="37.3978" x="567.851" y="261.634">
<rect fill="#ffffff" height="54.5353" stroke="none" width="37.3978" x="567.851" y="261.634"/>
<use fill="#000000" fill-rule="evenodd" stroke="none" xlink:href="#Fill_6"/>
</mask>
<use fill="none" mask="url(#StrokeMask_6)" stroke="#ffa254" stroke-linecap="round" stroke-linejoin="round" stroke-width="13.4954" xlink:href="#Fill_6"/>
</g>
<g opacity="1">
<use fill="#ffe587" fill-rule="nonzero" stroke="none" xlink:href="#Fill_7"/>
<mask height="56.3343" id="StrokeMask_7" maskUnits="userSpaceOnUse" width="45.1122" x="640.127" y="253.799">
<rect fill="#ffffff" height="56.3343" stroke="none" width="45.1122" x="640.127" y="253.799"/>
<use fill="#000000" fill-rule="evenodd" stroke="none" xlink:href="#Fill_7"/>
</mask>
<use fill="none" mask="url(#StrokeMask_7)" stroke="#ffa254" stroke-linecap="round" stroke-linejoin="round" stroke-width="13.4954" xlink:href="#Fill_7"/>
</g>
<g opacity="1">
<use fill="#ffe587" fill-rule="nonzero" stroke="none" xlink:href="#Fill_8"/>
<mask height="55.0492" id="StrokeMask_8" maskUnits="userSpaceOnUse" width="41.4967" x="722.155" y="264.172">
<rect fill="#ffffff" height="55.0492" stroke="none" width="41.4967" x="722.155" y="264.172"/>
<use fill="#000000" fill-rule="evenodd" stroke="none" xlink:href="#Fill_8"/>
</mask>
<use fill="none" mask="url(#StrokeMask_8)" stroke="#ffa254" stroke-linecap="round" stroke-linejoin="round" stroke-width="13.4954" xlink:href="#Fill_8"/>
</g>
<g opacity="1">
<use fill="#ffe587" fill-rule="nonzero" stroke="none" xlink:href="#Fill_9"/>
<mask height="56.7887" id="StrokeMask_9" maskUnits="userSpaceOnUse" width="46.2096" x="756.844" y="277.078">
<rect fill="#ffffff" height="56.7887" stroke="none" width="46.2096" x="756.844" y="277.078"/>
<use fill="#000000" fill-rule="evenodd" stroke="none" xlink:href="#Fill_9"/>
</mask>
<use fill="none" mask="url(#StrokeMask_9)" stroke="#ffa254" stroke-linecap="round" stroke-linejoin="round" stroke-width="13.4954" xlink:href="#Fill_9"/>
</g>
<g opacity="1">
<use fill="#ffe587" fill-rule="nonzero" stroke="none" xlink:href="#Fill_10"/>
<mask height="58.3614" id="StrokeMask_10" maskUnits="userSpaceOnUse" width="48.0747" x="797.543" y="293.294">
<rect fill="#ffffff" height="58.3614" stroke="none" width="48.0747" x="797.543" y="293.294"/>
<use fill="#000000" fill-rule="evenodd" stroke="none" xlink:href="#Fill_10"/>
</mask>
<use fill="none" mask="url(#StrokeMask_10)" stroke="#ffa254" stroke-linecap="round" stroke-linejoin="round" stroke-width="13.4954" xlink:href="#Fill_10"/>
</g>
<g opacity="1">
<use fill="#ffe587" fill-rule="nonzero" stroke="none" xlink:href="#Fill_11"/>
<mask height="52.2919" id="StrokeMask_11" maskUnits="userSpaceOnUse" width="49.3353" x="828.25" y="315.762">
<rect fill="#ffffff" height="52.2919" stroke="none" width="49.3353" x="828.25" y="315.762"/>
<use fill="#000000" fill-rule="evenodd" stroke="none" xlink:href="#Fill_11"/>
</mask>
<use fill="none" mask="url(#StrokeMask_11)" stroke="#ffa254" stroke-linecap="round" stroke-linejoin="round" stroke-width="13.4954" xlink:href="#Fill_11"/>
</g>
</g>
<path d="M244.588 611.162C237.591 610.455 237.852 625.093 244.397 625.647C245.365 625.729 246.33 625.482 247.028 624.784C248.942 622.868 246.012 621.126 245.165 619.705C244.645 618.832 244.309 617.672 244.087 616.701C243.855 615.69 244.238 614.189 244.731 613.288C244.848 613.074 245.956 611.477 245.422 611.326C244.958 611.194 244.702 611.173 244.588 611.162Z" fill="#ffe587" fill-rule="nonzero" opacity="1" stroke="none" vectornator:layerName="Curve 41"/>
<path d="M314.474 721.517C311.459 722.057 313.154 726.774 313.665 728.58C315.027 733.391 319.078 743.4 326.084 740.647C327.491 740.093 328.691 737.704 327.701 736.3C326.563 734.686 323.489 735.269 322.161 733.781C319.663 730.981 319.265 722.825 315.882 721.257C315.266 720.972 314.558 721.502 314.474 721.517Z" fill="#ffe587" fill-rule="nonzero" opacity="1" stroke="none" vectornator:layerName="Curve 42"/>
<path d="M378.277 671.42C375.539 671.458 376.282 674.852 376.634 676.942C377.578 682.544 378.689 687.612 381.055 692.804C381.782 694.4 383.729 698.518 386.227 697.565C388.21 696.809 387.193 691.885 386.876 690.463C385.663 685.025 384.527 680.149 382.062 675.153C381.137 673.277 380.257 671.393 378.277 671.42Z" fill="#ffe587" fill-rule="nonzero" opacity="1" stroke="none" vectornator:layerName="Curve 43"/>
<path d="M384.406 700.591C383.496 700.745 383.814 703.507 384.129 704.134C384.95 705.769 386.564 705.677 388.114 705.308C391.593 704.481 391.938 698.837 387.821 699.53" fill="#ffe587" fill-rule="nonzero" opacity="1" stroke="none" vectornator:layerName="Curve 44"/>
<path d="M429.836 672.194C429.263 677.513 434.657 691.234 439.71 694.243C441.744 695.454 447.043 697.379 449.112 695.342C450.038 694.43 451.737 691.536 450.86 690.169C450.18 689.107 448.005 688.368 446.998 687.686C444.873 686.245 443.065 684.004 441.264 682.175C439.153 680.03 436.534 675.682 435.593 672.783C435.198 671.568 434.729 669.168 433.483 668.511C431.271 667.345 429.98 670.864 429.836 672.194Z" fill="#ffe587" fill-rule="nonzero" opacity="1" stroke="none" vectornator:layerName="Curve 45"/>
<path d="M468.661 544.703C467.513 545.609 470.649 548.513 470.68 550.604C470.725 553.634 468.763 558.55 473.638 557.615C474.784 557.395 475.877 556.759 476.694 555.9C478.069 554.456 477.502 552.543 477.169 550.81C476.151 545.502 473.048 541.244 468.661 544.703Z" fill="#ffe587" fill-rule="nonzero" opacity="1" stroke="none" vectornator:layerName="Curve 46"/>
<path d="M476.469 608.507C475.101 610.491 478.136 610.558 479.141 612.347C480.288 614.392 480.613 624.255 485.556 618.05C488.076 614.885 485.763 607.469 481.481 606.9C478.899 606.557 477.247 607.378 476.469 608.507Z" fill="#ffe587" fill-rule="nonzero" opacity="1" stroke="none" vectornator:layerName="Curve 47"/>
<path d="M419.009 554.426C409.864 556.255 410.881 568.579 412.218 575.266C412.606 577.202 413.475 582.199 415.848 582.877C417.322 583.298 418.032 580.649 418.307 579.715C419.499 575.662 417.369 571.444 418.541 567.539C420.428 561.247 427.652 560.322 430.366 554.895C432.048 551.53 426.658 550.836 424.629 551.851" fill="#ffe587" fill-rule="nonzero" opacity="1" stroke="none" vectornator:layerName="Curve 48"/>
<path d="M422.112 566.661C421.934 568.329 420.381 572.277 423.224 571.871C424.039 571.755 425.108 570.393 425.566 569.764C426.029 569.126 426.485 568.527 426.736 567.773C427.981 564.04 422.493 563.087 422.112 566.661Z" fill="#ffe587" fill-rule="nonzero" opacity="1" stroke="none" vectornator:layerName="Curve 49"/>
<path d="M334.61 577.085C330.84 583.37 340.912 581.468 343.702 579.321C351.419 573.385 341.372 571.634 336.995 574.552" fill="#ffe587" fill-rule="nonzero" opacity="1" stroke="none" vectornator:layerName="Curve 50"/>
<path d="M249.796 609.709C246.08 611.526 248.643 616.793 251.474 615.58C256.389 613.473 255.565 606.888 249.796 609.709Z" fill="#ffe587" fill-rule="nonzero" opacity="1" stroke="none" vectornator:layerName="Curve 51"/>
<path d="M301.531 593.138C302.191 590.919 305.104 591.78 306.611 592.834C307.417 593.398 307.641 595.731 307.67 596.596C307.823 601.26 295.542 610.594 291.474 607.747C289.86 606.617 290.549 604.102 291.846 603.14C292.859 602.388 294.466 602.658 295.641 602.273C297.51 601.66 300.892 598.95 301.441 597.103" fill="#ffe587" fill-rule="nonzero" opacity="1" stroke="none" vectornator:layerName="Curve 52"/>
<path d="M523.425 663.999C522.686 666.078 524.034 668.968 524.288 671.038C524.982 676.696 525.284 686.387 532.164 688.206C535.64 689.125 540.987 684.981 539.555 681.255C538.998 679.808 535.735 679.299 534.554 678.571C532.559 677.34 531.65 674.279 531.017 672.136C529.709 667.705 532.557 657.384 524.655 658.353" fill="#ffe587" fill-rule="nonzero" opacity="1" stroke="none" vectornator:layerName="Curve 53"/>
<path d="M581.746 665.032C582.646 670.44 586.65 678.549 591.872 681.258C595.213 682.991 600.649 682.232 600.541 677.587C600.469 674.469 594.984 675.551 593.378 673.582C589.942 669.369 593.528 663.433 590.792 659.164C589.307 656.846 585.362 653.912 582.786 656.785C580.769 659.034 581.533 663.755 581.746 665.032Z" fill="#ffe587" fill-rule="nonzero" opacity="1" stroke="none" vectornator:layerName="Curve 54"/>
<path d="M514.174 561.295C513.869 565.1 519.362 562.873 520.043 559.761C520.89 555.895 515.408 553.345 517.728 549.195C519.051 546.828 527.384 544.381 526.277 541.461C525.279 538.828 516.681 537.837 514.478 539.713C512.317 541.554 512.73 544.823 513.153 547.359" fill="#ffe587" fill-rule="nonzero" opacity="1" stroke="none" vectornator:layerName="Curve 55"/>
<path d="M532.719 537.233C529.503 536.026 531.349 541.223 533.592 541.914C535.999 542.655 541.833 538.892 539.071 536.918C536.769 535.274 534.454 537.884 532.719 537.233Z" fill="#ffe587" fill-rule="nonzero" opacity="1" stroke="none" vectornator:layerName="Curve 56"/>
<path d="M575.253 575.938C579.878 572.804 582.708 580.988 582.602 584.175C582.481 587.835 580.639 591.261 579.088 594.537C576.89 599.176 575.21 604.072 571.779 608.018C568.501 611.787 558.34 614.072 553.687 612.24C552.146 611.633 549.711 609.026 551.819 607.597C553.114 606.719 555.522 606.937 557.028 606.564C559.823 605.872 562.561 604.398 564.942 602.784C569.353 599.794 571.342 593.546 573.339 588.931C574.195 586.952 573.34 584.593 574.073 582.464" fill="#ffe587" fill-rule="nonzero" opacity="1" stroke="none" vectornator:layerName="Curve 57"/>
<path d="M622.741 638.181C619.686 638.181 618.139 641.85 617.009 644.272C614.173 650.347 614.909 664.061 624.532 663.259C626.356 663.107 628.329 661.974 628.652 660.035C629.186 656.83 625.428 654.022 625.428 650.72C625.428 647.46 639.12 635.315 627.936 635.315" fill="#ffe587" fill-rule="nonzero" opacity="1" stroke="none" vectornator:layerName="Curve 58"/>
<path d="M635.459 531.421C632.618 533.45 630.039 535.408 627.577 537.87C626.093 539.354 624.433 541.074 623.637 543.064C622.293 546.424 621.688 552.528 626.861 550.588C631.453 548.866 629.47 546.008 632.056 543.423C636.34 539.138 642.635 537.501 646.923 533.212C650.545 529.59 649.636 526.851 644.236 527.301C642.931 527.41 641.579 527.761 640.296 528.018" fill="#ffe587" fill-rule="nonzero" opacity="1" stroke="none" vectornator:layerName="Curve 59"/>
<path d="M622.472 553.991C620.414 554.932 621.024 558.975 621.845 560.619C623.737 564.402 628.524 561.797 630.264 559.186C633.567 554.232 625.391 552.657 622.472 553.991Z" fill="#ffe587" fill-rule="nonzero" opacity="1" stroke="none" vectornator:layerName="Curve 60"/>
<path d="M665.396 625.662C669.908 629.335 672.993 634.241 673.915 636.027C676.507 641.049 676.42 640.207 676.135 644.484C676.018 646.243 674.117 652.454 673.217 653.996C672.467 655.283 670.594 658.339 671.299 660.101C672.388 662.824 679.263 654.177 680.156 653.04C683.815 648.383 686.457 640.808 683.55 634.509C680.591 628.098 677.328 626.044 671.285 622.418C669.09 621.101 661.272 618.497 661.272 622.201" fill="#ffe587" fill-rule="nonzero" opacity="1" stroke="none" vectornator:layerName="Curve 61"/>
<path d="M672.359 560.708C673.566 561.271 673.782 562.421 675.046 562.948C681.726 565.731 687.479 559.825 689.197 553.812C690.026 550.913 692.374 544.111 688.839 541.99C683.164 538.584 682.277 552.444 680.241 554.887C677.393 558.304 674.295 552.405 671.464 554.528C668.379 556.842 670.686 559.928 672.359 560.708Z" fill="#ffe587" fill-rule="nonzero" opacity="1" stroke="none" vectornator:layerName="Curve 62"/>
<path d="M725.38 528.298C724.173 527.51 723.707 526.416 722.008 526.443C716.656 526.531 707.942 538.456 714.987 542.163C715.72 542.548 716.561 542.634 717.365 542.735C719.053 542.948 722.047 542.66 721.354 540.244C721.044 539.163 719.693 538.633 719.381 537.545C718.968 536.105 719.655 534.618 720.056 533.275C720.736 531.004 728.427 530.288 725.38 528.298Z" fill="#ffe587" fill-rule="nonzero" opacity="1" stroke="none" vectornator:layerName="Curve 63"/>
<path d="M732.631 658.665C731.381 661.053 730.001 675.088 731.257 677.601C733.568 682.222 740.518 683.334 743.424 678.975C745.67 675.605 737.566 672.508 737.144 669.556C736.473 664.853 740.567 661.747 739.695 657.389C739.003 653.926 735.484 654.288 733.808 656.801C732.973 658.054 733.435 657.129 732.631 658.665Z" fill="#ffe587" fill-rule="nonzero" opacity="1" stroke="none" vectornator:layerName="Curve 64"/>
<path d="M775.5 536.479C773.23 538.085 773.582 541.559 770.489 542.465C768.363 543.087 762.885 542.572 762.445 545.275C762.106 547.358 766.244 549.361 767.808 549.615C770.302 550.021 781.851 546.728 783.449 544.411C785.67 541.189 784.175 537.11 780.575 535.76C779.936 535.521 777.414 534.298 776.808 534.931C775.97 535.807 775.887 536.205 775.5 536.479Z" fill="#ffe587" fill-rule="nonzero" opacity="1" stroke="none" vectornator:layerName="Curve 65"/>
<path d="M767.791 533.735C763.549 532.276 759.119 537.038 763.721 538.763C767.756 540.275 772.88 535.486 767.791 533.735Z" fill="#ffe587" fill-rule="nonzero" opacity="1" stroke="none" vectornator:layerName="Curve 66"/>
<path d="M738.048 565.548C738.116 565.156 737.87 564.486 738.251 564.371C738.559 564.278 738.672 566.713 738.686 566.871C738.972 570.052 738.621 573.35 738.405 576.524C737.798 585.451 736.84 594.491 736.873 603.458C736.875 603.875 736.367 610.228 737.678 609.833C739.819 609.188 740.536 604.298 741.004 602.612C743.405 593.958 744.284 583.288 742.403 574.442C741.595 570.645 741.072 566.763 741.094 562.956C741.101 561.841 739.691 560.048 739.36 561.964" fill="#ffe587" fill-rule="nonzero" opacity="1" stroke="none" vectornator:layerName="Curve 67"/>
<path d="M835.766 545.803C831.633 544.943 826.392 559.315 826.125 562.61C826.036 563.708 825.391 569.064 827.997 568.375C830.751 567.647 835.924 554.981 839.034 552.242C840.82 550.669 843.361 548.49 845.703 547.871C848.054 547.249 852.828 548.999 854.412 546.611C856.484 543.488 852.655 540.112 849.596 540.234C847.217 540.328 845.054 541.208 842.589 540.695" fill="#ffe587" fill-rule="nonzero" opacity="1" stroke="none" vectornator:layerName="Curve 68"/>
<path d="M849.169 552.432C847.875 552.709 840.099 557.097 844.218 558.696C844.919 558.968 845.686 559.287 846.426 559.156C851.013 558.343 856.061 550.952 849.169 552.432Z" fill="#ffe587" fill-rule="nonzero" opacity="1" stroke="none" vectornator:layerName="Curve 69"/>
<path d="M859.776 605.705C859.502 609.927 863.216 629.194 858.908 632.018C856.182 633.805 846.912 630.858 846.15 632.435C843.376 638.176 853.082 640.481 856.702 640.774C869.442 641.806 868.401 620.583 867.168 612.619C866.748 609.905 867.279 605.515 865.694 603.097C864.21 600.834 861.458 599.239 859.438 601.795C858.11 603.475 859.802 605.302 859.776 605.705Z" fill="#ffe587" fill-rule="nonzero" opacity="1" stroke="none" vectornator:layerName="Curve 70"/>
<path d="M859.767 668.481C857.073 676.213 857.527 687.882 861.068 695.437C863.769 701.198 865.347 703.445 869.456 697.566C870.104 696.64 872.264 695.145 872.506 693.978C872.739 692.858 870.886 692.251 870.313 691.601C868.703 689.773 867.376 687.067 866.754 684.717C866.18 682.545 865.343 652.474 859.767 668.481Z" fill="#ffe587" fill-rule="nonzero" opacity="1" stroke="none" vectornator:layerName="Curve 71"/>
<path d="M783.158 665.215C782.037 667.368 779.363 677.79 780.074 680.048C781.033 683.092 786.049 688.276 789.018 684.08C789.51 683.383 787.014 676.691 787.587 674.299C788.571 670.195 793.862 666.673 793.09 662.169C792.253 657.282 787.454 653.716 784.602 659.19" fill="#ffe587" fill-rule="nonzero" opacity="1" stroke="none" vectornator:layerName="Curve 72"/>
<path d="M792.826 675.083C793.09 672.418 795.364 671.733 796.948 669.7C798.1 668.221 798.712 666.73 799.686 665.166C802.341 660.903 804.276 666.238 803.9 669.243C803.259 674.358 791.808 685.371 792.826 675.083Z" fill="#ffe587" fill-rule="nonzero" opacity="1" stroke="none" vectornator:layerName="Curve 73"/>
<path d="M911.495 651.22C910.359 651.791 909.453 658.44 908.911 660.076C906.668 666.854 902.482 675.203 902.92 682.372C903.072 684.872 902.144 689.627 906.266 689.029C909.535 688.555 911.27 683.012 912.496 680.686C918.211 669.833 921.602 659.696 922.108 647.449C922.441 639.388 915.867 632.771 912.208 643.825" fill="#ffe587" fill-rule="nonzero" opacity="1" stroke="none" vectornator:layerName="Curve 74"/>
<path d="M901.587 692.163C898.672 693.297 899.069 705.339 904.215 703.611C912.412 700.859 906.478 690.259 901.587 692.163Z" fill="#ffe587" fill-rule="nonzero" opacity="1" stroke="none" vectornator:layerName="Curve 75"/>
<path d="M950.252 564.503C945.782 563.024 933.186 574.721 940.593 575.874C945.696 576.668 949.883 571.55 954.743 570.845C957.202 570.489 959.699 572.694 961.929 571.142C965.358 568.757 960.727 564.501 958.164 563.653" fill="#ffe587" fill-rule="nonzero" opacity="1" stroke="none" vectornator:layerName="Curve 76"/>
<path d="M1004.8 608.224C1008.23 622.433 1009.63 636.799 1005.83 651.226C1004.36 656.844 1001.12 662.614 998.893 668.005C996.663 673.418 994.047 680.681 989.036 684.166C985.849 686.382 982.448 686.421 980.911 682.517C979.496 678.925 981.666 675.025 983.074 671.787C986.793 663.237 992.91 655.669 997.079 647.288C1002.92 635.551 996.416 621.915 995.228 609.91C995.134 608.954 995.351 607.194 995.429 606.161C996.372 593.54 1004.54 607.148 1004.8 608.224Z" fill="#ffe587" fill-rule="nonzero" opacity="1" stroke="none" vectornator:layerName="Curve 77"/>
<path d="M1052.31 594.116C1046.04 595.124 1043.95 597.421 1042.7 603.769C1042.13 606.622 1045.55 611.346 1048.75 610.628C1051.89 609.924 1048.62 603.25 1050.92 600.94C1053.26 598.588 1055.91 601.48 1058.2 599.883C1060.54 598.26 1058.73 593.764 1056 593.952C1053.7 594.111 1053.27 593.963 1052.31 594.116Z" fill="#ffe587" fill-rule="nonzero" opacity="1" stroke="none" vectornator:layerName="Curve 78"/>
<path d="M1055.77 607.75C1050.61 611.739 1054.25 616.982 1059.28 614.458C1062.76 612.709 1061.05 608.747 1059.05 606.753C1058.81 606.508 1058.52 605.962 1058.22 606.13C1056.62 607.015 1056.4 607.269 1055.77 607.75Z" fill="#ffe587" fill-rule="nonzero" opacity="1" stroke="none" vectornator:layerName="Curve 79"/>
<path d="M1022.05 712.261C1020.86 714.48 1020.5 716.362 1019.31 718.462C1014.85 726.3 1009.01 732.659 1011.13 742.117C1011.6 744.203 1012.57 746.756 1014.89 747.523C1017.33 748.331 1021.43 747.304 1022.7 744.903C1023.95 742.519 1019.7 738.819 1020.18 735.746C1021.26 728.762 1029.27 724.134 1030.55 715.939C1031.78 707.987 1025.6 705.66 1022.05 712.261Z" fill="#ffe587" fill-rule="nonzero" opacity="1" stroke="none" vectornator:layerName="Curve 80"/>
<path d="M1033.31 693.442C1030.7 692.503 1024.35 704.523 1028.96 706.051C1033.42 707.525 1039 695.49 1033.31 693.442Z" fill="#ffe587" fill-rule="nonzero" opacity="1" stroke="none" vectornator:layerName="Curve 81"/>
<path d="M1092.25 623.811C1085.18 623.712 1084.54 621.607 1079.51 628.784C1078 630.929 1077.07 632.96 1077.23 635.662C1077.24 635.858 1077.29 636.992 1077.86 636.91C1080 636.6 1084.69 629.268 1088.04 628.141C1091.82 626.875 1095.82 632.201 1099.61 630.928C1103.62 629.581 1101.55 626.12 1098.87 624.786C1095.87 623.293 1094.34 623.84 1092.25 623.811Z" fill="#ffe587" fill-rule="nonzero" opacity="1" stroke="none" vectornator:layerName="Curve 82"/>
<path d="M368.884 568.085C366.156 568.279 358.182 572.147 359.215 576.637C359.481 577.791 360.106 578.835 360.435 579.972C361.274 582.871 362.861 585.766 365.151 587.699C365.431 587.936 365.679 588.6 365.992 588.409C367.194 587.675 367.346 576.533 367.799 574.662C368.256 572.774 371.756 572.163 373.264 570.918C373.591 570.649 375.281 567.942 373.481 567.931C370.829 567.914 369.769 568.022 368.884 568.085Z" fill="#ffe587" fill-rule="nonzero" opacity="1" stroke="none" vectornator:layerName="Curve 83"/>
<path d="M298.301 648.72C299.692 655.674 304.066 662.4 306.756 668.902C309.119 674.613 310.245 680.517 313.029 686.084C314.138 688.302 315.609 691.392 317.392 693.175C320.675 696.457 320.255 686.01 320.12 685.266C317.323 669.883 306.914 657.389 301.029 643.266C300.101 641.039 295.254 631.121 291.483 632.629C288.99 633.627 294.419 643.137 294.756 643.811" fill="#ffe587" fill-rule="nonzero" opacity="1" stroke="none" vectornator:layerName="Curve 84"/>
<path d="M322.438 697.947C322.008 700.474 324.677 706.617 326.392 704.902C329.55 701.744 323.744 690.265 322.438 697.947Z" fill="#ffe587" fill-rule="nonzero" opacity="1" stroke="none" vectornator:layerName="Curve 85"/>
<path d="M361.464 427.753C360.685 428.111 359.726 428.057 359.012 428.533C356.536 430.184 358.894 444.475 365.252 438.116C366.931 436.438 361.615 434.472 362.801 432.099C363.512 430.677 367.76 429.574 366.144 427.419C364.37 425.054 361.715 427.638 361.464 427.753Z" fill="#ffe587" fill-rule="nonzero" opacity="1" stroke="none" vectornator:layerName="Curve 86"/>
<path d="M404.794 508.355C405.214 511.556 407.643 521.456 410.853 523.061C413.412 524.34 420.701 522.398 419.722 518.479C419.406 517.216 414.998 517.748 413.957 516.558C413.114 515.594 411.956 513.926 411.592 512.715C410.876 510.328 412.15 505.3 409.819 503.551C406.026 500.706 404.416 505.48 404.794 508.355Z" fill="#ffe587" fill-rule="nonzero" opacity="1" stroke="none" vectornator:layerName="Curve 87"/>
<path d="M416.248 509.833C413.869 512.106 418.02 517.372 420.756 514.637C423.675 511.718 418.614 507.668 417.209 508.872C416.6 509.394 416.432 509.658 416.248 509.833Z" fill="#ffe587" fill-rule="nonzero" opacity="1" stroke="none" vectornator:layerName="Curve 88"/>
<path d="M401.246 416.422C400.556 418.779 400.155 421.06 397.699 422.113C395.313 423.135 391.443 423.292 390.457 426.251C389.6 428.822 392.098 430.074 394.3 429.798C397.439 429.406 405.151 425.167 407.306 422.704C409.458 420.244 406.272 416.608 404.35 415.166C403.939 414.858 402.115 414.303 401.838 415.018C401.543 415.776 401.32 416.171 401.246 416.422Z" fill="#ffe587" fill-rule="nonzero" opacity="1" stroke="none" vectornator:layerName="Curve 89"/>
<path d="M367.991 432.976C368.108 434.264 367.132 436.634 367.991 437.78C369.859 440.27 374.773 437.846 375.381 435.415C376.025 432.838 367.569 428.321 367.991 432.976Z" fill="#ffe587" fill-rule="nonzero" opacity="1" stroke="none" vectornator:layerName="Curve 90"/>
<path d="M396.812 451.304C396.545 452.717 399.517 464.097 401.985 459.654C403.349 457.199 400.947 447.192 397.551 449.456C397.334 449.601 396.873 450.981 396.812 451.304Z" fill="#ffe587" fill-rule="nonzero" opacity="1" stroke="none" vectornator:layerName="Curve 91"/>
<path d="M440.118 404.524C435.918 404.524 428.407 407.6 427.998 412.506C427.762 415.342 429.056 418.044 429.92 420.635C430.396 422.064 433.446 430.39 434.945 430.39C436.389 430.39 437.161 428.028 437.605 426.99C439.642 422.238 434.548 418.675 435.684 414.131C436.02 412.787 437.539 411.558 438.64 410.88C441.147 409.337 444.263 408.967 446.621 407.037C451.316 403.196 447.469 401.476 443.37 402.16" fill="#ffe587" fill-rule="nonzero" opacity="1" stroke="none" vectornator:layerName="Curve 92"/>
<path d="M447.582 446.943C448.101 449.318 448.879 458.164 451.351 459.063C454.27 460.125 459.171 458.615 461.697 457.142C461.982 456.976 464.005 455.677 463.914 455.22C463.382 452.557 455.993 454.298 453.864 453.447C452.209 452.785 449.986 449.947 450.169 448.126C450.274 447.07 451.247 445.065 450.316 444.135C449.411 443.23 446.563 443.561 447.065 445.318C447.339 446.277 447.518 446.65 447.582 446.943Z" fill="#ffe587" fill-rule="nonzero" opacity="1" stroke="none" vectornator:layerName="Curve 93"/>
<path d="M470.787 414.279C472.251 418.221 474.221 420.48 474.408 424.773C474.447 425.663 473.58 428.793 474.112 429.503C474.971 430.648 477.146 427.762 477.512 427.286C479.288 424.977 480.018 422.131 478.99 419.305C478.073 416.783 476.048 414.826 473.521 413.984C473.376 413.935 470.723 412.806 470.713 412.949C470.663 413.693 470.72 414.099 470.787 414.279Z" fill="#ffe587" fill-rule="nonzero" opacity="1" stroke="none" vectornator:layerName="Curve 94"/>
<path d="M447.368 492.985C446.964 496.072 448.8 505.72 451.217 507.977C453.615 510.214 459.07 511.411 459.812 506.781C460.288 503.819 455.746 504.481 454.367 502.717C451.586 499.157 455.635 494.261 450.942 490.494C448.657 488.66 447.418 492.602 447.368 492.985Z" fill="#ffe587" fill-rule="nonzero" opacity="1" stroke="none" vectornator:layerName="Curve 95"/>
<path d="M488.12 486.097C488.892 489.914 496.548 505.826 502.051 498.505C502.54 497.854 503.903 495.263 503.27 494.452C502.244 493.139 499.183 495.128 497.623 493.419C494.69 490.208 496.143 485.408 493.023 482.114C491.404 480.404 486.38 479.519 487.093 483.042" fill="#ffe587" fill-rule="nonzero" opacity="1" stroke="none" vectornator:layerName="Curve 96"/>
<path d="M498.147 488.283C496.444 488.041 501.817 495.216 502.526 489.436C502.748 487.631 501.053 486.312 499.331 486.412C498.095 486.483 499.161 488.427 498.147 488.283Z" fill="#ffe587" fill-rule="nonzero" opacity="1" stroke="none" vectornator:layerName="Curve 97"/>
<path d="M473.976 432.335C471.708 435.654 473.338 440.543 476.768 436.052C478.303 434.043 476.013 429.357 473.976 432.335Z" fill="#ffe587" fill-rule="nonzero" opacity="1" stroke="none" vectornator:layerName="Curve 98"/>
<path d="M501.752 391.062C499.809 395.109 500.784 400.882 501.605 405.032C501.929 406.666 502.917 410.183 504.994 407.578C507.571 404.346 504.356 399.829 505.977 396.442C507.106 394.082 512.43 391.051 511.786 388.38C510.341 382.388 503.059 388.34 501.752 391.062Z" fill="#ffe587" fill-rule="nonzero" opacity="1" stroke="none" vectornator:layerName="Curve 99"/>
<path d="M512.493 466.423C511.705 475.801 520.608 486.673 528.95 490.148C532.294 491.541 535.445 494.198 538.687 490.945C539.216 490.414 539.977 489.222 539.609 488.429C539.038 487.198 536.129 486.865 535.069 486.357C532.319 485.042 529.379 483.364 527.404 481.02C523.621 476.532 523.402 469.937 519.287 465.571C518.134 464.347 514.839 461.284 512.892 462.33C512.238 462.681 512.499 466.346 512.493 466.423Z" fill="#ffe587" fill-rule="nonzero" opacity="1" stroke="none" vectornator:layerName="Curve 100"/>
<path d="M542.475 489.398C544.24 489.687 545.401 491.652 547.477 490.987C548.554 490.642 550.441 487.675 549.398 486.636C548.198 485.44 543.953 484.758 542.611 486.023C541.807 486.781 540.949 489.148 542.475 489.398Z" fill="#ffe587" fill-rule="nonzero" opacity="1" stroke="none" vectornator:layerName="Curve 101"/>
<path d="M552.224 383.693C549.346 387.12 550.953 391.279 551.756 395.26C551.926 396.101 552.295 399.519 553.7 398.473C556.316 396.526 555.34 391.383 556.127 388.658C556.983 385.692 560.706 385.658 561.541 382.763C562.571 379.196 558.211 376.839 555.293 378.681C553.752 379.654 552.462 383.41 552.224 383.693Z" fill="#ffe587" fill-rule="nonzero" opacity="1" stroke="none" vectornator:layerName="Curve 102"/>
<path d="M563.436 389.55C563.078 390.356 565.255 399.118 567.114 397.945C571.501 395.175 566.622 382.371 563.436 389.55Z" fill="#ffe587" fill-rule="nonzero" opacity="1" stroke="none" vectornator:layerName="Curve 103"/>
<path d="M589.224 379.338C586.906 380.111 587.387 391.996 588.372 393.966C588.957 395.136 590.357 398.006 592.207 396.949C597.403 393.979 593.379 388.816 594.195 384.735C594.653 382.447 597.456 381.364 597.746 379.338C598.446 374.435 594.203 375.357 591.07 376.923" fill="#ffe587" fill-rule="nonzero" opacity="1" stroke="none" vectornator:layerName="Curve 104"/>
<path d="M598.598 385.09C597.249 384.807 596.563 388.082 597.462 389.279C598.437 390.58 599.637 387.777 599.734 387.291C599.936 386.282 598.86 385.145 598.598 385.09Z" fill="#ffe587" fill-rule="nonzero" opacity="1" stroke="none" vectornator:layerName="Curve 105"/>
<path d="M589.792 452.764C589.302 454.726 589.863 457.27 590.076 459.297C590.322 461.631 589.82 473.592 591.781 475.062C592.574 475.657 594.027 475.329 594.905 475.204C595.34 475.142 597.064 475.538 597.319 475.346C599.011 474.078 597.508 468.85 597.319 467.251C596.974 464.316 595.886 461.28 596.183 458.303C596.729 452.849 597.48 449.904 595.473 444.385C594.813 442.569 592.73 439.653 591.354 438.278C591.296 438.219 590.899 438.023 590.786 438.136C589.595 439.327 589.508 441.711 589.508 443.249" fill="#ffe587" fill-rule="nonzero" opacity="1" stroke="none" vectornator:layerName="Curve 106"/>
<path d="M592.207 476.624C591.762 477.514 592.339 478.837 592.491 479.749C592.78 481.483 594.248 484.849 596.325 485.146C599.164 485.551 601.593 483.08 599.734 480.601C599.039 479.674 597.827 479.12 597.035 478.329C596.375 477.668 596.788 476.957 596.325 476.34C595.958 475.851 595.446 476.029 595.047 475.63" fill="#ffe587" fill-rule="nonzero" opacity="1" stroke="none" vectornator:layerName="Curve 107"/>
<path d="M613.155 379.267C617.008 377.136 620.115 373.582 624.872 374.083C626.777 374.283 633.396 375.82 630.695 379.196C628.096 382.445 622.562 380.166 619.191 381.752C616.927 382.817 612.641 388.823 609.96 387.291C606.241 385.166 610.98 380.469 613.155 379.267Z" fill="#ffe587" fill-rule="nonzero" opacity="1" stroke="none" vectornator:layerName="Curve 108"/>
<path d="M605.912 419.033C604.031 417.776 604.35 424.68 604.705 425.922C605.519 428.772 609.667 429.632 612.232 429.33C613.156 429.221 614.658 428.751 615.357 428.052C616.003 427.405 615.982 425.95 615.073 425.496C613.457 424.688 610.987 425.528 609.534 424.075C607.956 422.498 607.475 420.078 605.912 419.033Z" fill="#ffe587" fill-rule="nonzero" opacity="1" stroke="none" vectornator:layerName="Curve 109"/>
<path d="M646.815 396.31C647.176 400.62 648.199 405.685 646.176 409.731C645.677 410.728 641.639 415.426 640.353 413.282C638.948 410.941 642.483 401.862 642.483 398.653C642.483 397.131 640.905 395.382 641.489 393.824C643.232 389.177 646.718 395.159 646.815 396.31Z" fill="#ffe587" fill-rule="nonzero" opacity="1" stroke="none" vectornator:layerName="Curve 110"/>
<path d="M640.069 385.303C637.42 386.38 639.926 390.345 641.773 389.421C643.249 388.683 641.789 384.603 640.069 385.303Z" fill="#ffe587" fill-rule="nonzero" opacity="1" stroke="none" vectornator:layerName="Curve 111"/>
<path d="M667.865 456.339C668.28 461.509 666.338 472.827 670.236 476.725C671.595 478.085 673.643 479.159 675.214 480.281C677.254 481.739 681.971 483.362 684.459 481.94C689.937 478.81 679.055 473.278 678.058 471.036C677.176 469.052 675.409 465.676 675.688 463.45C676.062 460.452 678.006 458.007 675.688 454.917C673.236 451.647 667.481 451.552 667.865 456.339Z" fill="#ffe587" fill-rule="nonzero" opacity="1" stroke="none" vectornator:layerName="Curve 112"/>
<path d="M671.184 396.721C670.074 394.965 673.26 379.838 674.739 378.112C677.769 374.578 683.609 373.718 687.777 375.505C688.696 375.898 689.298 377.128 690.148 377.638C690.494 377.846 691.549 377.962 691.807 378.349C693.058 380.226 682.506 382.818 681.377 384.513C678.399 388.979 682.082 395.301 676.162 398.261C675.225 398.73 674.261 399.682 673.08 399.21C671.776 398.688 671.809 397.709 671.184 396.721Z" fill="#ffe587" fill-rule="nonzero" opacity="1" stroke="none" vectornator:layerName="Curve 113"/>
<path d="M695.837 376.571C694.071 381.884 699.958 383.439 700.815 380.009C701.43 377.548 699.029 376.737 697.259 375.979C696.997 375.866 696.734 375.288 696.548 375.505C696.06 376.074 695.972 376.166 695.837 376.571Z" fill="#ffe587" fill-rule="nonzero" opacity="1" stroke="none" vectornator:layerName="Curve 114"/>
<path d="M711.245 422.441C707.852 423.681 712.277 423.497 712.668 426.233C712.857 427.562 709.378 431.919 712.668 431.449C719.095 430.53 719.411 419.456 711.245 422.441Z" fill="#ffe587" fill-rule="nonzero" opacity="1" stroke="none" vectornator:layerName="Curve 115"/>
<path d="M712.075 469.851C711.181 469.055 717.891 466.771 719.779 467.243C721.738 467.733 721.773 472.211 721.439 473.881C721.045 475.847 716.81 478.497 715.038 476.725C714.041 475.728 714.542 475.156 712.905 474.829C710.513 474.351 706.825 477.129 705.319 474.118C703.78 471.04 705.95 470.151 708.638 469.614C709.78 469.385 710.798 469.377 711.956 469.377C712.115 469.377 712.525 469.25 712.431 469.377C712.127 469.782 712.42 470.158 712.075 469.851Z" fill="#ffe587" fill-rule="nonzero" opacity="1" stroke="none" vectornator:layerName="Curve 116"/>
<path d="M715.394 376.69C714.231 377.683 711.418 378.559 712.431 380.246C713.919 382.726 716.865 381.159 718.831 382.142C720.073 382.763 718.575 385.807 719.305 386.172C720.042 386.541 722.82 383.547 723.098 382.853C724.923 378.29 720.263 372.531 715.394 376.69Z" fill="#ffe587" fill-rule="nonzero" opacity="1" stroke="none" vectornator:layerName="Curve 117"/>
<path d="M671.539 405.966C668.678 410.465 672.003 415.113 674.739 409.64C676.075 406.969 674.168 401.832 671.539 405.966Z" fill="#ffe587" fill-rule="nonzero" opacity="1" stroke="none" vectornator:layerName="Curve 118"/>
<path d="M748.202 380.003C745.52 384.028 746.281 387.399 745.909 392.235C745.808 393.549 744.94 396.243 745.569 397.501C746.176 398.714 749.505 395.183 749.816 394.783C752.201 391.717 750.308 388.659 751.515 385.439C752.463 382.912 757.193 382.5 756.442 379.494C755.942 377.496 751.868 376.831 750.326 377.795C748.937 378.663 748.665 379.309 748.202 380.003Z" fill="#ffe587" fill-rule="nonzero" opacity="1" stroke="none" vectornator:layerName="Curve 119"/>
<path d="M741.492 449.399C739.516 451.99 739.306 455.671 738.604 458.828C737.638 463.177 736.566 466.694 736.566 471.229C736.566 473.321 736.541 477.374 738.944 477.854C741.689 478.403 743.182 475.079 743.361 472.928C743.572 470.388 743.47 467.82 743.701 465.283C744.032 461.633 745.483 458.22 745.06 454.411C744.905 453.016 745.065 450.941 744.55 449.654C744.446 449.393 743.258 447.379 742.851 447.786C742.05 448.586 741.612 449.242 741.492 449.399Z" fill="#ffe587" fill-rule="nonzero" opacity="1" stroke="none" vectornator:layerName="Curve 120"/>
<path d="M739.199 479.893C738.545 479.793 737.904 479.504 737.245 479.553C736.493 479.609 735.951 485.345 738.604 486.009C739.996 486.356 747.451 485.294 745.739 482.441C744.502 480.38 739.829 479.99 739.199 479.893Z" fill="#ffe587" fill-rule="nonzero" opacity="1" stroke="none" vectornator:layerName="Curve 121"/>
<path d="M771.816 478.874C779.603 475.171 779.958 482.506 774.959 485.839C772.569 487.432 770.593 481.499 771.221 480.063C771.517 479.386 771.63 478.962 771.816 478.874Z" fill="#ffe587" fill-rule="nonzero" opacity="1" stroke="none" vectornator:layerName="Curve 122"/>
<path d="M758.735 384.42C758.484 384.741 760.137 387.39 760.009 388.667C759.853 390.232 758.391 391.074 758.14 392.574C757.601 395.814 761.9 393.97 762.897 392.574C764.235 390.702 763.485 384.377 760.689 383.911C759.594 383.728 758.785 384.357 758.735 384.42Z" fill="#ffe587" fill-rule="nonzero" opacity="1" stroke="none" vectornator:layerName="Curve 123"/>
<path d="M860.275 466.267C856.429 468.063 854.026 481.28 853.628 485.806C853.501 487.245 852.384 493.246 855.547 491.998C860.648 489.984 859.483 483.972 860.45 479.835C861.046 477.284 863.273 474.481 863.069 471.852C862.868 469.259 862.093 465.418 860.275 466.267Z" fill="#ffe587" fill-rule="nonzero" opacity="1" stroke="none" vectornator:layerName="Curve 124"/>
<path d="M873.388 399.66C870.643 398.346 868.352 397.42 866.589 400.705C866.588 400.707 866.048 401.992 866.174 402.311C867.052 404.537 871.969 403.687 873.614 404.882C874.68 405.656 873.4 406.428 873.966 407.103C874.714 407.996 877.955 405.04 878.304 404.473C880.46 400.967 873.557 399.741 873.388 399.66Z" fill="#ffe587" fill-rule="nonzero" opacity="1" stroke="none" vectornator:layerName="Curve 125"/>
<path d="M891.54 404.953C890.255 404.685 888.19 403.987 887.021 404.966C884.747 406.873 887.933 409.445 889.947 409.056C892.777 408.51 894.192 405.506 891.54 404.953Z" fill="#ffe587" fill-rule="nonzero" opacity="1" stroke="none" vectornator:layerName="Curve 126"/>
<path d="M852.132 493.477C851.091 494.619 848.66 500.989 852.881 500.524C854.961 500.295 857.251 490.471 853.869 492.398C852.858 492.974 852.328 493.262 852.132 493.477Z" fill="#ffe587" fill-rule="nonzero" opacity="1" stroke="none" vectornator:layerName="Curve 127"/>
<path d="M919.5 413.731C916.229 415.794 914.266 420.26 913.318 423.997C912.47 427.34 913.462 429.912 917.36 427.592C920.046 425.993 918.947 422.242 921.224 420.315C923.134 418.7 927.566 420.363 928.737 418.185C930.783 414.381 924.446 411.241 921.51 412.681C920.305 413.272 919.871 413.498 919.5 413.731Z" fill="#ffe587" fill-rule="nonzero" opacity="1" stroke="none" vectornator:layerName="Curve 128"/>
<path d="M913.124 430.187C910.919 430.102 908.513 436.768 910.251 437.531C914.12 439.229 918.591 430.397 913.124 430.187Z" fill="#ffe587" fill-rule="nonzero" opacity="1" stroke="none" vectornator:layerName="Curve 129"/>
<path d="M888.086 497.411C887.437 497.553 886.725 501.339 886.345 502.107C884.647 505.538 881.079 515.773 888.107 516.132C889.542 516.206 892.575 514.435 892.95 512.957C893.063 512.51 892.793 512.55 892.52 512.481C890.605 511.995 889.411 510.44 889.515 508.416C889.772 503.387 893.846 499.152 893.016 493.892C892.615 491.349 888.999 490.922 888.315 493.616" fill="#ffe587" fill-rule="nonzero" opacity="1" stroke="none" vectornator:layerName="Curve 130"/>
<path d="M967.305 435.401C965.059 438.375 964.146 442.072 963.408 445.697C963.275 446.35 962.365 450.003 963.997 449.883C966 449.736 969.38 446.136 970.142 444.469C970.808 443.009 970.103 441.206 971.279 439.987C973.152 438.046 976.312 438.417 978.063 436.387C979.825 434.347 975.81 431.117 973.898 431.11C970.508 431.099 968.477 433.848 967.305 435.401Z" fill="#ffe587" fill-rule="nonzero" opacity="1" stroke="none" vectornator:layerName="Curve 131"/>
<path d="M977.42 441.453C975.269 440.599 972.499 444.795 975.01 446.255C977.303 447.588 981.489 443.069 977.42 441.453Z" fill="#ffe587" fill-rule="nonzero" opacity="1" stroke="none" vectornator:layerName="Curve 132"/>
<path d="M932.689 509.645C933.188 513.406 934.548 524.603 937.109 528.381C940.338 533.144 943.766 524.456 943.776 521.632C943.78 520.362 942.01 519.04 941.372 518.087C940.35 516.558 939.831 514.664 939.19 512.946C938.338 510.661 938.285 508.162 937.49 505.909C936.417 502.873 934.858 500.069 933.681 497.053C932.82 494.843 932.299 491.591 930.558 489.838C929.872 489.148 929.04 492.672 928.993 493.111C928.618 496.622 929.276 499.978 931.073 502.996" fill="#ffe587" fill-rule="nonzero" opacity="1" stroke="none" vectornator:layerName="Curve 133"/>
<path d="M944.352 511.044C944.027 511.49 943.203 511.27 942.818 511.664C942.728 511.757 943.684 518.477 945.988 517.973C949.591 517.186 951.732 510.979 947.83 509.266C945.987 508.457 946.758 510.239 945.841 510.597C944.977 510.934 944.544 510.78 944.352 511.044Z" fill="#ffe587" fill-rule="nonzero" opacity="1" stroke="none" vectornator:layerName="Curve 134"/>
<path d="M930.621 422.332C929.02 425.635 932.187 432.137 934.75 425.582C935.776 422.96 932.083 419.317 930.621 422.332Z" fill="#ffe587" fill-rule="nonzero" opacity="1" stroke="none" vectornator:layerName="Curve 135"/>
<path d="M880.824 427.68C877.698 432.554 877.961 438.103 875.766 443.277C874.923 445.265 873.311 447.586 873.198 449.782C873.044 452.798 874.92 456.903 877.673 453.119C881.49 447.872 880.311 442.144 882.26 436.484C883.094 434.062 884.967 431.973 884.83 429.247C884.736 427.37 884.135 425.354 883.513 423.591C883.23 422.791 883.876 420.907 883.047 421.088C881.967 421.324 881.688 423.027 881.097 423.712" fill="#ffe587" fill-rule="nonzero" opacity="1" stroke="none" vectornator:layerName="Curve 136"/>
<path d="M874.093 459.274C873.153 459.572 871.282 463.664 873.711 463.673C873.878 463.673 874.033 463.542 874.143 463.416C875.919 461.358 877.165 458.302 874.093 459.274Z" fill="#ffe587" fill-rule="nonzero" opacity="1" stroke="none" vectornator:layerName="Curve 137"/>
</g>
<g id="Layer-2" vectornator:layerName="Layer 2" visibility="hidden">
<path d="M245.781 421.707L544.802 233.066L657.486 161.979M1064.53 422.394L652.824 162.666M222.403 388.703L634.108 128.975M1087.91 389.391L676.202 129.663M251.964 369.786C253.053 369.122 222.043 389.074 221.336 389.622C218.96 391.459 213.283 395.303 210.736 396.857C202.799 401.698 198.643 411.498 204.423 419.954C218.721 440.872 243.467 423.084 257.643 414.438M1069.7 377.565C1068.61 376.901 1099.62 396.853 1100.33 397.401C1102.71 399.238 1108.38 403.082 1110.93 404.636C1118.87 409.477 1123.02 419.277 1117.24 427.733C1102.95 448.651 1078.2 430.863 1064.02 422.217M679.913 130.904C693.326 120.626 696.954 107.581 679.745 99.1977C666.304 92.6506 646.747 93.2844 632.636 96.7592C617.772 100.419 616.891 113.142 626.895 122.941C629.381 125.376 633.154 128.228 636.224 129.867M862.576 246.499L862.576 122.039M988.593 325.458L988.593 126.356M862.605 123.325C863.834 121.24 883.652 116.827 885.743 116.287C892.885 114.443 920.132 112.339 927.538 112.821C951.895 114.405 958.9 115.575 966.807 118.096C978.732 121.9 976.361 122.48 988.452 127.46" fill="#ffe587" fill-rule="nonzero" opacity="1" stroke="#007aff" stroke-linecap="round" stroke-linejoin="round" stroke-width="10" vectornator:layerName="Curve 1"/>
</g>
</svg>
